<?xml version="1.0" encoding="utf-8"?>
<!-- Generator: Adobe Illustrator 16.0.0, SVG Export Plug-In . SVG Version: 6.00 Build 0)  -->
<!DOCTYPE svg PUBLIC "-//W3C//DTD SVG 1.1//EN" "http://www.w3.org/Graphics/SVG/1.1/DTD/svg11.dtd">
<svg version="1.1" id="Layer_1" xmlns="http://www.w3.org/2000/svg" xmlns:xlink="http://www.w3.org/1999/xlink" x="0px" y="0px"
	 width="928px" height="1000px" viewBox="0 0 928 1000" enable-background="new 0 0 928 1000" xml:space="preserve">
<path d="M648,762.5l-72,72v-223h223l-72,72l184,184l-79,79L648,762.5z M200,315.5l-182-183l79-79l183,182l73-70l-1,222l-222,1
	L200,315.5z M18,867.5l184-184l-72-72h223v223l-72-72l-184,184L18,867.5z M800,388.5H576v-225l73,72l183-182l79,79l-183,183
	L800,388.5z"/>
</svg>
